<svg xmlns="http://www.w3.org/2000/svg" version="1.1" xmlns:xlink="http://www.w3.org/1999/xlink" xmlns:svgjs="http://svgjs.dev/svgjs" width="2000" height="1540" viewBox="0 0 2000 1540"><g transform="matrix(1,0,0,1,1.978142076502877,-2.1789361702124097)"><svg viewBox="0 0 183 141" data-background-color="#dedede" preserveAspectRatio="xMidYMid meet" height="1540" width="2000" xmlns="http://www.w3.org/2000/svg" xmlns:xlink="http://www.w3.org/1999/xlink"><g id="tight-bounds" transform="matrix(1,0,0,1,-0.1810000000000116,0.19949999999997203)"><svg viewBox="0 0 183.3615228169014 140.60052000000002" height="140.60052000000002" width="183.3615228169014"><g><svg viewBox="0 0 183.3615228169014 140.60052000000002" height="140.60052000000002" width="183.3615228169014"><g><svg viewBox="0 0 183.3615228169014 140.60052000000002" height="140.60052000000002" width="183.3615228169014"><g><path d="M0 140.601v-140.601h183.362v140.601z" fill="#374151" stroke="transparent" stroke-width="0" rx="0%" data-fill-palette-color="tertiary"></path><path d="M3.283 137.317v-134.034h176.795v134.034z" fill="#dedede" stroke="transparent" stroke-width="0" rx="0%" data-fill-palette-color="quaternary"></path><path d="M9.85 130.751v-120.901h163.662v120.901z" fill="#374151" stroke="transparent" stroke-width="0" data-fill-palette-color="tertiary"></path></g><g transform="matrix(1,0,0,1,19.69974,19.69974)" id="textblocktransform"><svg viewBox="0 0 143.96204281690143 101.20104000000002" height="101.20104000000002" width="143.96204281690143" id="textblock"><g><svg viewBox="0 0 143.96204281690143 101.20104000000002" height="101.20104000000002" width="143.96204281690143"><g transform="matrix(1,0,0,1,0,0)"><svg width="143.96204281690143" viewBox="1.0499999523162842 -34.900001525878906 50.5 35.5" height="101.20104000000002" data-palette-color="#dedede"><path d="M28.75 0L23.4 0 20.7-9.65 8.95-9.65 6.25 0 1.05 0 11.5-34.9 18.25-34.9 28.75 0ZM19.45-14L16.2-25 15.1-30.1 14.45-30.1 13.35-25 10.25-14 19.45-14ZM36.1-34.9L51.55-34.9 51.55-8.6Q51.55-4.25 49-1.83 46.45 0.6 41.9 0.6L41.9 0.6Q37.55 0.6 35.25-1.68 32.95-3.95 32.3-7.9L32.3-7.9 37.1-9Q37.5-6.6 38.57-5.35 39.65-4.1 41.9-4.1L41.9-4.1Q43.95-4.1 45.1-5.3 46.25-6.5 46.25-9.2L46.25-9.2 46.25-30.45 36.1-30.45 36.1-34.9Z" opacity="1" transform="matrix(1,0,0,1,0,0)" fill="#dedede" class="wordmark-text-0" data-fill-palette-color="quaternary" id="text-0"></path></svg></g></svg></g></svg></g></svg></g><g></g></svg></g><defs></defs></svg><rect width="183.3615228169014" height="140.60052000000002" fill="none" stroke="none" visibility="hidden"></rect></g></svg></g></svg>